<?xml version="1.0" encoding="UTF-8" standalone="no"?>
<!DOCTYPE svg PUBLIC "-//W3C//DTD SVG 1.1//EN"
 "http://www.w3.org/Graphics/SVG/1.1/DTD/svg11.dtd">
<!-- Generated by graphviz version 2.40.1 (20161225.0304)
 -->
<!-- Pages: 1 -->
<svg width="742pt" height="227pt"
 viewBox="0.00 0.00 742.00 227.21" xmlns="http://www.w3.org/2000/svg" xmlns:xlink="http://www.w3.org/1999/xlink">
<g id="graph0" class="graph" transform="scale(.8428 .8428) rotate(0) translate(4 265.6)">
<polygon fill="#ffffff" stroke="transparent" points="-4,4 -4,-265.6 876.4375,-265.6 876.4375,4 -4,4"/>
<!-- START -->
<g id="node1" class="node">
<title>START</title>
<g id="a_node1"><a xlink:title="None">
<ellipse fill="none" stroke="#000000" cx="134.4375" cy="-177.0424" rx="43" ry="43"/>
<text text-anchor="middle" x="134.4375" y="-172.8424" font-family="Times,serif" font-size="14.00" fill="#000000">START</text>
</a>
</g>
</g>
<!-- STATE1 -->
<g id="node2" class="node">
<title>STATE1</title>
<g id="a_node2"><a xlink:title="None">
<ellipse fill="none" stroke="#000000" cx="311.4375" cy="-177.0424" rx="43" ry="43"/>
<text text-anchor="middle" x="311.4375" y="-172.8424" font-family="Times,serif" font-size="14.00" fill="#000000">STATE1</text>
</a>
</g>
</g>
<!-- START&#45;&gt;STATE1 -->
<g id="edge1" class="edge">
<title>START&#45;&gt;STATE1</title>
<path fill="none" stroke="#000000" d="M177.7366,-177.0424C201.9335,-177.0424 232.2928,-177.0424 257.9638,-177.0424"/>
<polygon fill="#000000" stroke="#000000" points="258.2791,-180.5425 268.279,-177.0424 258.279,-173.5425 258.2791,-180.5425"/>
<text text-anchor="middle" x="222.4375" y="-179.8424" font-family="Times,serif" font-size="14.00" fill="#000000">INIT_OK</text>
</g>
<!-- ERROR -->
<g id="node3" class="node">
<title>ERROR</title>
<g id="a_node3"><a xlink:title="None">
<ellipse fill="none" stroke="#ff0000" cx="483.4375" cy="-95.0424" rx="43" ry="43"/>
<text text-anchor="middle" x="483.4375" y="-90.8424" font-family="Times,serif" font-size="14.00" fill="#000000">ERROR</text>
</a>
</g>
</g>
<!-- START&#45;&gt;ERROR -->
<g id="edge2" class="edge">
<title>START&#45;&gt;ERROR</title>
<g id="a_edge2"><a xlink:title="None">
<path fill="none" stroke="#ff0000" d="M171.0284,-154.223C197.1422,-139.1606 233.6586,-120.5171 268.4375,-111.0424 322.0978,-96.424 385.8981,-93.3851 429.9898,-93.4084"/>
<polygon fill="#ff0000" stroke="#ff0000" points="430.1783,-96.9095 440.1988,-93.4687 430.2197,-89.9096 430.1783,-96.9095"/>
</a>
</g>
<text text-anchor="middle" x="311.4375" y="-113.8424" font-family="Times,serif" font-size="14.00" fill="#000000">error</text>
</g>
<!-- FINAL -->
<g id="node4" class="node">
<title>FINAL</title>
<g id="a_node4"><a xlink:title="None">
<ellipse fill="none" stroke="#000000" cx="778.4375" cy="-199.0424" rx="43" ry="43"/>
<ellipse fill="none" stroke="#000000" cx="778.4375" cy="-199.0424" rx="47" ry="47"/>
<text text-anchor="middle" x="778.4375" y="-194.8424" font-family="Times,serif" font-size="14.00" fill="#000000">FINAL</text>
</a>
</g>
</g>
<!-- START&#45;&gt;FINAL -->
<g id="edge3" class="edge">
<title>START&#45;&gt;FINAL</title>
<path fill="none" stroke="#000000" d="M172.8873,-196.3587C199.0832,-208.4063 234.9569,-222.7739 268.4375,-229.0424 431.1999,-259.5161 627.8093,-229.586 722.3309,-211.1477"/>
<polygon fill="#000000" stroke="#000000" points="723.1215,-214.5592 732.25,-209.1814 721.7603,-207.6928 723.1215,-214.5592"/>
<text text-anchor="middle" x="397.4375" y="-244.8424" font-family="Times,serif" font-size="14.00" fill="#000000">DIRECT</text>
</g>
<!-- STATE1&#45;&gt;ERROR -->
<g id="edge4" class="edge">
<title>STATE1&#45;&gt;ERROR</title>
<g id="a_edge4"><a xlink:title="None">
<path fill="none" stroke="#ff0000" d="M350.467,-158.4354C375.647,-146.4309 408.5764,-130.732 435.3657,-117.9604"/>
<polygon fill="#ff0000" stroke="#ff0000" points="437.042,-121.0387 444.5625,-113.5759 434.0296,-114.72 437.042,-121.0387"/>
</a>
</g>
<text text-anchor="middle" x="397.4375" y="-148.8424" font-family="Times,serif" font-size="14.00" fill="#000000">error</text>
</g>
<!-- STATE1&#45;&gt;FINAL -->
<g id="edge5" class="edge">
<title>STATE1&#45;&gt;FINAL</title>
<path fill="none" stroke="#000000" d="M354.5347,-179.0727C438.9797,-183.0508 626.2266,-191.8719 721.0423,-196.3386"/>
<polygon fill="#000000" stroke="#000000" points="721.1519,-199.8475 731.3055,-196.8221 721.4813,-192.8553 721.1519,-199.8475"/>
<text text-anchor="middle" x="483.4375" y="-188.8424" font-family="Times,serif" font-size="14.00" fill="#000000">STATE1_OK</text>
</g>
<!-- ERROR&#45;&gt;FINAL -->
<g id="edge7" class="edge">
<title>ERROR&#45;&gt;FINAL</title>
<path fill="none" stroke="#000000" d="M521.4485,-115.5534C528.9974,-119.2756 536.9419,-122.9521 544.5464,-126.0424 604.1481,-150.2636 674.9613,-171.3449 722.9357,-184.5424"/>
<polygon fill="#000000" stroke="#000000" points="722.2454,-187.9819 732.814,-187.2372 724.0878,-181.2287 722.2454,-187.9819"/>
<text text-anchor="middle" x="605.4375" y="-170.8424" font-family="Times,serif" font-size="14.00" fill="#000000">ERROR_STATE_OK</text>
</g>
<!-- ERROR&#45;&gt;FINAL -->
<g id="edge8" class="edge">
<title>ERROR&#45;&gt;FINAL</title>
<g id="a_edge8"><a xlink:title="None">
<path fill="none" stroke="#000000" d="M526.4366,-90.9684C564.5541,-88.9934 621.0351,-90.1404 666.3286,-108.0424 693.6161,-118.8277 719.387,-138.7737 739.3237,-157.249"/>
<polygon fill="#000000" stroke="#000000" points="737.0117,-159.8803 746.67,-164.2357 741.8358,-154.808 737.0117,-159.8803"/>
</a>
</g>
<text text-anchor="middle" x="605.4375" y="-110.8424" font-family="Times,serif" font-size="14.00" fill="#000000">else</text>
</g>
<!-- EMAIL_DSTAror_handler@mail.company -->
<g id="node5" class="node">
<title>EMAIL_DSTAror_handler@mail.company</title>
<g id="a_node5"><a xlink:title="None">
<defs>
<linearGradient id="l_0" gradientUnits="userSpaceOnUse" x1="684.541" y1="-57.0424" x2="872.334" y2="-57.0424" >
<stop offset="0" style="stop-color:#20b2aa;stop-opacity:1.;"/>
<stop offset="1" style="stop-color:#ff4500;stop-opacity:1.;"/>
</linearGradient>
</defs>
<polygon fill="url(#l_0)" stroke="#ff0000" points="854.334,-94.0424 684.541,-94.0424 684.541,-14.0424 702.541,-14.0424 702.541,-20.0424 854.334,-20.0424 854.334,-14.0424 872.334,-57.0424 854.334,-100.0424 854.334,-94.0424"/>
<text text-anchor="middle" x="778.4375" y="-52.8424" font-family="Times,serif" font-size="14.00" fill="#000000">A:ror_handler@mail.company</text>
</a>
</g>
</g>
<!-- ERROR&#45;&gt;EMAIL_DSTAror_handler@mail.company -->
<g id="edge6" class="edge">
<title>ERROR&#45;&gt;EMAIL_DSTAror_handler@mail.company</title>
<g id="a_edge6"><a xlink:title="None">
<path fill="none" stroke="#ff0000" stroke-width="2" stroke-dasharray="5,2" d="M523.0296,-78.2123C530.0884,-75.7699 537.4539,-73.569 544.5464,-72.0424 586.4427,-63.0244 633.4553,-58.8878 674.2825,-57.1424"/>
<polygon fill="#ff0000" stroke="#ff0000" stroke-width="2" points="674.664,-60.6304 684.5221,-56.7487 674.395,-53.6356 674.664,-60.6304"/>
</a>
</g>
<text text-anchor="middle" x="605.4375" y="-74.8424" font-family="Times,serif" font-size="14.00" fill="#000000">send email </text>
</g>
<!-- null -->
<g id="node6" class="node">
<title>null</title>
<text text-anchor="middle" x="27.4375" y="-172.8424" font-family="Times,serif" font-size="14.00" fill="#000000"> </text>
</g>
<!-- null&#45;&gt;START -->
<g id="edge9" class="edge">
<title>null&#45;&gt;START</title>
<path fill="none" stroke="#000000" d="M54.4381,-177.0424C62.6218,-177.0424 71.9123,-177.0424 81.1925,-177.0424"/>
<polygon fill="#000000" stroke="#000000" points="81.2057,-180.5425 91.2057,-177.0424 81.2056,-173.5425 81.2057,-180.5425"/>
</g>
</g>
</svg>
