<?xml version="1.0" encoding="UTF-8" standalone="no"?>
<!DOCTYPE svg PUBLIC "-//W3C//DTD SVG 1.1//EN"
 "http://www.w3.org/Graphics/SVG/1.1/DTD/svg11.dtd">
<!-- Generated by graphviz version 2.41.20171026.1811 (20171026.1811)
 -->
<!-- Pages: 1 -->
<svg width="742pt" height="227pt"
 viewBox="0.00 0.00 742.00 227.30" xmlns="http://www.w3.org/2000/svg" xmlns:xlink="http://www.w3.org/1999/xlink">
<g id="graph0" class="graph" transform="scale(0.84 0.84) rotate(0) translate(4 267.1)">
<polygon fill="white" stroke="transparent" points="-4,4 -4,-267.1 881,-267.1 881,4 -4,4"/>
<!-- START -->
<g id="node1" class="node">
<title>START</title>
<g id="a_node1"><a xlink:title="None">
<ellipse fill="none" stroke="black" cx="134" cy="-179.39" rx="43" ry="43"/>
<text text-anchor="middle" x="134" y="-175.69" font-family="Times,serif" font-size="14.00">START</text>
</a>
</g>
</g>
<!-- STATE1 -->
<g id="node2" class="node">
<title>STATE1</title>
<g id="a_node2"><a xlink:title="None">
<ellipse fill="none" stroke="black" cx="312" cy="-179.39" rx="43" ry="43"/>
<text text-anchor="middle" x="312" y="-175.69" font-family="Times,serif" font-size="14.00">STATE1</text>
</a>
</g>
</g>
<!-- START&#45;&gt;STATE1 -->
<g id="edge1" class="edge">
<title>START&#45;&gt;STATE1</title>
<path fill="none" stroke="black" d="M177.16,-179.39C201.67,-179.39 232.76,-179.39 258.8,-179.39"/>
<polygon fill="black" stroke="black" points="258.88,-182.89 268.88,-179.39 258.88,-175.89 258.88,-182.89"/>
<text text-anchor="middle" x="223" y="-183.19" font-family="Times,serif" font-size="14.00">INIT_OK</text>
</g>
<!-- ERROR -->
<g id="node3" class="node">
<title>ERROR</title>
<g id="a_node3"><a xlink:title="None">
<ellipse fill="none" stroke="red" cx="485" cy="-95.39" rx="43" ry="43"/>
<text text-anchor="middle" x="485" y="-91.69" font-family="Times,serif" font-size="14.00">ERROR</text>
</a>
</g>
</g>
<!-- START&#45;&gt;ERROR -->
<g id="edge2" class="edge">
<title>START&#45;&gt;ERROR</title>
<g id="a_edge2"><a xlink:title="None">
<path fill="none" stroke="red" d="M170.72,-156.76C196.87,-141.4 233.79,-122.18 269,-112.39 323.1,-97.34 387.6,-94.09 431.75,-93.98"/>
<polygon fill="red" stroke="red" points="431.95,-97.48 441.96,-94 431.97,-90.48 431.95,-97.48"/>
</a>
</g>
<text text-anchor="middle" x="312" y="-116.19" font-family="Times,serif" font-size="14.00">error</text>
</g>
<!-- FINAL -->
<g id="node4" class="node">
<title>FINAL</title>
<g id="a_node4"><a xlink:title="None">
<ellipse fill="none" stroke="black" cx="783" cy="-200.39" rx="43" ry="43"/>
<ellipse fill="none" stroke="black" cx="783" cy="-200.39" rx="47" ry="47"/>
<text text-anchor="middle" x="783" y="-196.69" font-family="Times,serif" font-size="14.00">FINAL</text>
</a>
</g>
</g>
<!-- START&#45;&gt;FINAL -->
<g id="edge3" class="edge">
<title>START&#45;&gt;FINAL</title>
<path fill="none" stroke="black" d="M172.88,-198.44C199.12,-210.54 235.27,-225.07 269,-231.39 433.58,-262.2 632.54,-231.18 727.03,-212.42"/>
<polygon fill="black" stroke="black" points="727.83,-215.83 736.94,-210.42 726.44,-208.97 727.83,-215.83"/>
<text text-anchor="middle" x="398" y="-248.19" font-family="Times,serif" font-size="14.00">DIRECT</text>
</g>
<!-- STATE1&#45;&gt;ERROR -->
<g id="edge4" class="edge">
<title>STATE1&#45;&gt;ERROR</title>
<g id="a_edge4"><a xlink:title="None">
<path fill="none" stroke="red" d="M350.95,-160.74C376.3,-148.29 409.82,-131.82 436.88,-118.53"/>
<polygon fill="red" stroke="red" points="438.72,-121.53 446.16,-113.98 435.64,-115.24 438.72,-121.53"/>
</a>
</g>
<text text-anchor="middle" x="398" y="-154.19" font-family="Times,serif" font-size="14.00">error</text>
</g>
<!-- STATE1&#45;&gt;FINAL -->
<g id="edge5" class="edge">
<title>STATE1&#45;&gt;FINAL</title>
<path fill="none" stroke="black" d="M355.03,-181.27C439.64,-185.06 630.5,-193.6 725.74,-197.87"/>
<polygon fill="black" stroke="black" points="725.62,-201.37 735.76,-198.32 725.93,-194.37 725.62,-201.37"/>
<text text-anchor="middle" x="485" y="-192.19" font-family="Times,serif" font-size="14.00">STATE1_OK</text>
</g>
<!-- ERROR&#45;&gt;FINAL -->
<g id="edge7" class="edge">
<title>ERROR&#45;&gt;FINAL</title>
<path fill="none" stroke="black" d="M522.21,-117.05C529.76,-121.12 537.78,-125.11 545.5,-128.39 578.37,-142.32 668.41,-168.55 727.42,-185.21"/>
<polygon fill="black" stroke="black" points="726.76,-188.66 737.34,-188.01 728.66,-181.93 726.76,-188.66"/>
<text text-anchor="middle" x="608" y="-173.19" font-family="Times,serif" font-size="14.00">ERROR_STATE_OK</text>
</g>
<!-- ERROR&#45;&gt;FINAL -->
<g id="edge8" class="edge">
<title>ERROR&#45;&gt;FINAL</title>
<g id="a_edge8"><a xlink:title="None">
<path fill="none" stroke="black" d="M527.9,-91.58C566.38,-89.68 624.26,-90.91 670.5,-109.39 697.66,-120.24 723.29,-140.19 743.12,-158.65"/>
<polygon fill="black" stroke="black" points="740.77,-161.25 750.42,-165.63 745.61,-156.19 740.77,-161.25"/>
</a>
</g>
<text text-anchor="middle" x="608" y="-113.19" font-family="Times,serif" font-size="14.00">else</text>
</g>
<!-- EMAIL_DSTAror_handler@mail.company -->
<g id="node5" class="node">
<title>EMAIL_DSTAror_handler@mail.company</title>
<g id="a_node5"><a xlink:title="None">
<defs>
<linearGradient id="l_0" gradientUnits="userSpaceOnUse" x1="689" y1="-57.39" x2="877" y2="-57.39" >
<stop offset="0" style="stop-color:lightseagreen;stop-opacity:1.;"/>
<stop offset="1" style="stop-color:orangered;stop-opacity:1.;"/>
</linearGradient>
</defs>
<polygon fill="url(#l_0)" stroke="red" points="859,-94.39 689,-94.39 689,-14.39 707,-14.39 707,-20.39 859,-20.39 859,-14.39 877,-57.39 859,-100.39 859,-94.39"/>
<text text-anchor="middle" x="783" y="-53.69" font-family="Times,serif" font-size="14.00">A:ror_handler@mail.company</text>
</a>
</g>
</g>
<!-- ERROR&#45;&gt;EMAIL_DSTAror_handler@mail.company -->
<g id="edge6" class="edge">
<title>ERROR&#45;&gt;EMAIL_DSTAror_handler@mail.company</title>
<g id="a_edge6"><a xlink:title="None">
<path fill="none" stroke="red" stroke-width="2" stroke-dasharray="5,2" d="M524.84,-78.43C531.62,-76.04 538.69,-73.88 545.5,-72.39 588.56,-62.93 637.02,-58.77 678.8,-57.12"/>
<polygon fill="red" stroke="red" stroke-width="2" points="679.12,-60.61 688.99,-56.76 678.88,-53.61 679.12,-60.61"/>
</a>
</g>
<text text-anchor="middle" x="608" y="-76.19" font-family="Times,serif" font-size="14.00">send email </text>
</g>
<!-- null -->
<g id="node6" class="node">
<title>null</title>
<text text-anchor="middle" x="27" y="-175.69" font-family="Times,serif" font-size="14.00"> </text>
</g>
<!-- null&#45;&gt;START -->
<g id="edge9" class="edge">
<title>null&#45;&gt;START</title>
<path fill="none" stroke="black" d="M54.23,-179.39C62.26,-179.39 71.4,-179.39 80.53,-179.39"/>
<polygon fill="black" stroke="black" points="80.79,-182.89 90.79,-179.39 80.79,-175.89 80.79,-182.89"/>
</g>
</g>
</svg>
